<svg id="Logo" xmlns="http://www.w3.org/2000/svg" viewBox="0 0 207.24 54"><defs><style>.cls-1{isolation:isolate;}.cls-2{fill:#ff8989;}</style></defs><title>Symbol 3 – 2</title><g id="Symbol_3_2" data-name="Symbol 3 2"><g id="Anime" class="cls-1"><g class="cls-1"><path d="M15.28,13.44,26.48,42H23.56l-3.48-8.88h-13L3.64,42H.76L12.24,13.44ZM19.16,30.8,13.64,16.16,7.92,30.8Z" transform="translate(-0.76 0)"/><path d="M31.08,21.36v3.56h.08a6,6,0,0,1,2.56-3,7.52,7.52,0,0,1,4-1.14,10.24,10.24,0,0,1,3.62.56,5.74,5.74,0,0,1,2.34,1.58A5.83,5.83,0,0,1,45,25.4a14.07,14.07,0,0,1,.36,3.32V42H42.8V29.12a11.94,11.94,0,0,0-.24-2.46,5.21,5.21,0,0,0-.84-2,4.08,4.08,0,0,0-1.62-1.32,6,6,0,0,0-2.54-.48,6.44,6.44,0,0,0-2.7.54,5.8,5.8,0,0,0-2,1.48,6.83,6.83,0,0,0-1.28,2.24,9.16,9.16,0,0,0-.5,2.82V42H28.56V21.36Z" transform="translate(-0.76 0)"/><path d="M52.64,13.44v4H50.12v-4Zm0,7.92V42H50.12V21.36Z" transform="translate(-0.76 0)"/><path d="M59.8,21.36v3.48h.12a7.93,7.93,0,0,1,2.62-3,7.32,7.32,0,0,1,4.14-1.08,7,7,0,0,1,3.7,1,4.89,4.89,0,0,1,2.22,3,6.33,6.33,0,0,1,2.72-3,7.75,7.75,0,0,1,3.84-1Q86,20.76,86,28V42H83.48V28.12a6.08,6.08,0,0,0-1.08-3.9c-.72-.89-2-1.34-3.8-1.34a5.45,5.45,0,0,0-2.72.62,4.8,4.8,0,0,0-1.72,1.66,6.93,6.93,0,0,0-.9,2.38A14.81,14.81,0,0,0,73,30.32V42H70.48V28a8.52,8.52,0,0,0-.22-2,4.71,4.71,0,0,0-.72-1.64,3.39,3.39,0,0,0-1.34-1.1,4.67,4.67,0,0,0-2-.4,6.19,6.19,0,0,0-2.78.58,5.1,5.1,0,0,0-1.92,1.6,7.15,7.15,0,0,0-1.1,2.4,12,12,0,0,0-.36,3V42H57.48V21.36Z" transform="translate(-0.76 0)"/><path d="M92.66,35.18a7.69,7.69,0,0,0,1.22,2.62A7,7,0,0,0,96,39.72a5.89,5.89,0,0,0,3.08.76A6.13,6.13,0,0,0,103.4,39a7.57,7.57,0,0,0,2.16-3.84h2.52a10.14,10.14,0,0,1-2.94,5.44,8.78,8.78,0,0,1-6.06,1.92,9.63,9.63,0,0,1-4.22-.86A7.66,7.66,0,0,1,92,39.34a10.2,10.2,0,0,1-1.66-3.48,15.8,15.8,0,0,1-.54-4.18,15,15,0,0,1,.54-4A10.67,10.67,0,0,1,92,24.18a8.25,8.25,0,0,1,2.9-2.48,8.85,8.85,0,0,1,4.22-.94,8.16,8.16,0,0,1,7.1,3.62,10.92,10.92,0,0,1,1.58,3.72,16.47,16.47,0,0,1,.4,4.26H92.28A10.85,10.85,0,0,0,92.66,35.18Zm12.48-7.7a7.62,7.62,0,0,0-1.3-2.34,6.4,6.4,0,0,0-2-1.64,5.89,5.89,0,0,0-2.72-.62,6,6,0,0,0-2.76.62,6.4,6.4,0,0,0-2,1.64,8.14,8.14,0,0,0-1.34,2.36,11,11,0,0,0-.66,2.74h13.36A9.1,9.1,0,0,0,105.14,27.48Z" transform="translate(-0.76 0)"/></g></g><g id="Group_67" data-name="Group 67"><rect id="Rectangle_3" data-name="Rectangle 3" class="cls-2" x="109.24" width="98" height="54" rx="5" ry="5"/><g id="Loop" class="cls-1"><g class="cls-1"><path d="M116,14.15h4.88V37.79H135V42H116Z" transform="translate(-0.76 0)"/><path d="M147,42.55a11,11,0,0,1-4.31-.8,9.25,9.25,0,0,1-3.2-2.21,9.44,9.44,0,0,1-2-3.35,13.75,13.75,0,0,1,0-8.54,9.58,9.58,0,0,1,2-3.36,9.23,9.23,0,0,1,3.2-2.2,12,12,0,0,1,8.62,0,9.23,9.23,0,0,1,3.2,2.2,9.41,9.41,0,0,1,2,3.36,13.56,13.56,0,0,1,0,8.54,9.06,9.06,0,0,1-5.18,5.56A11,11,0,0,1,147,42.55ZM147,39a5,5,0,0,0,2.57-.63,5.35,5.35,0,0,0,1.8-1.64,7.18,7.18,0,0,0,1-2.28,10.25,10.25,0,0,0,0-5.16,7.13,7.13,0,0,0-1-2.29,5.61,5.61,0,0,0-1.8-1.62,5.66,5.66,0,0,0-5.15,0A5.68,5.68,0,0,0,142.6,27a6.92,6.92,0,0,0-1,2.29,10.25,10.25,0,0,0,0,5.16,7,7,0,0,0,1,2.28,5.41,5.41,0,0,0,1.79,1.64A5.08,5.08,0,0,0,147,39Z" transform="translate(-0.76 0)"/><path d="M170.1,42.55a11,11,0,0,1-4.31-.8,9.16,9.16,0,0,1-3.2-2.21,9.3,9.3,0,0,1-2-3.35,12.78,12.78,0,0,1-.68-4.29,12.67,12.67,0,0,1,.68-4.25,9.43,9.43,0,0,1,2-3.36,9.14,9.14,0,0,1,3.2-2.2,12,12,0,0,1,8.61,0,9.14,9.14,0,0,1,3.2,2.2,9.43,9.43,0,0,1,2,3.36,12.67,12.67,0,0,1,.68,4.25,12.78,12.78,0,0,1-.68,4.29,9.3,9.3,0,0,1-2,3.35,9.16,9.16,0,0,1-3.2,2.21A11,11,0,0,1,170.1,42.55Zm0-3.51a5.07,5.07,0,0,0,2.57-.63,5.22,5.22,0,0,0,1.79-1.64,7,7,0,0,0,1-2.28,10.25,10.25,0,0,0,0-5.16,6.94,6.94,0,0,0-1-2.29,5.48,5.48,0,0,0-1.79-1.62,5.66,5.66,0,0,0-5.15,0A5.58,5.58,0,0,0,165.73,27a6.94,6.94,0,0,0-1,2.29,10.25,10.25,0,0,0,0,5.16,7,7,0,0,0,1,2.28,5.31,5.31,0,0,0,1.79,1.64A5.08,5.08,0,0,0,170.1,39Z" transform="translate(-0.76 0)"/><path d="M184.1,21.84h4.21v2.73h.08A5.49,5.49,0,0,1,191,22.05a8.8,8.8,0,0,1,3.62-.76,9.62,9.62,0,0,1,4.16.84,8.26,8.26,0,0,1,2.94,2.3,10,10,0,0,1,1.76,3.41,14.46,14.46,0,0,1,.58,4.18,14.85,14.85,0,0,1-.52,3.94,10.4,10.4,0,0,1-1.6,3.37,7.8,7.8,0,0,1-6.57,3.22,10.72,10.72,0,0,1-2-.18,8.69,8.69,0,0,1-1.88-.57,7.09,7.09,0,0,1-1.65-1,5.54,5.54,0,0,1-1.27-1.42h-.08V49.45H184.1Zm15.52,10.1a10.14,10.14,0,0,0-.35-2.65A7.41,7.41,0,0,0,198.21,27a5.33,5.33,0,0,0-1.75-1.59A4.7,4.7,0,0,0,194,24.8a4.9,4.9,0,0,0-4.23,1.95,8.6,8.6,0,0,0-1.42,5.19,10.3,10.3,0,0,0,.37,2.83A6.19,6.19,0,0,0,189.87,37a5.48,5.48,0,0,0,1.77,1.48A5.12,5.12,0,0,0,194,39a5,5,0,0,0,2.58-.63,5.36,5.36,0,0,0,1.73-1.62,6.69,6.69,0,0,0,1-2.26A11.75,11.75,0,0,0,199.62,31.94Z" transform="translate(-0.76 0)"/></g></g></g></g></svg>