<?xml version="1.0" encoding="utf-8"?>
<!-- Generator: Adobe Illustrator 22.0.0, SVG Export Plug-In . SVG Version: 6.00 Build 0)  -->
<svg version="1.1" id="Logo" xmlns="http://www.w3.org/2000/svg" xmlns:xlink="http://www.w3.org/1999/xlink" x="0px" y="0px"
	 viewBox="0 0 208 54" style="enable-background:new 0 0 208 54;" xml:space="preserve">
<style type="text/css">
	.st0{enable-background:new    ;}
</style>
<g class="st0">
	<path d="M15.3,13.4L26.5,42h-2.9l-3.5-8.9h-13L3.7,42H0.8l11.5-28.6H15.3z M19.2,30.8l-5.5-14.6L8,30.8H19.2z"/>
	<path d="M31.1,21.4V25h0.1c0.5-1.3,1.3-2.3,2.6-3c1.2-0.8,2.6-1.1,4-1.1s2.6,0.2,3.6,0.6c1,0.4,1.8,0.9,2.3,1.6
		c0.6,0.7,1,1.5,1.2,2.5s0.4,2.1,0.4,3.3V42h-2.5V29.1c0-0.9-0.1-1.7-0.2-2.5c-0.2-0.8-0.4-1.4-0.8-2c-0.4-0.6-0.9-1-1.6-1.3
		c-0.7-0.3-1.5-0.5-2.5-0.5S35.8,23,35,23.3c-0.8,0.4-1.5,0.9-2,1.5s-1,1.4-1.3,2.2c-0.3,0.9-0.5,1.8-0.5,2.8v12h-2.5V21.2h2.4V21.4
		z"/>
	<path d="M52.6,13.4v4h-2.5v-4H52.6z M52.6,21.4V42h-2.5V21.4H52.6z"/>
	<path d="M59.8,21.4v3.5h0.1c0.7-1.3,1.5-2.3,2.6-3s2.5-1.1,4.1-1.1c1.4,0,2.6,0.3,3.7,1c1.1,0.7,1.8,1.7,2.2,3
		c0.6-1.4,1.5-2.4,2.7-3c1.2-0.7,2.5-1,3.8-1c4.6,0,6.8,2.4,6.8,7.2v14h-2.5V28.1c0-1.7-0.4-3-1.1-3.9c-0.7-0.9-2-1.3-3.8-1.3
		c-1.1,0-2,0.2-2.7,0.6c-0.7,0.4-1.3,1-1.7,1.7s-0.7,1.5-0.9,2.4s-0.3,1.8-0.3,2.8V42h-2.5V28c0-0.7-0.1-1.4-0.2-2
		c-0.1-0.6-0.4-1.2-0.7-1.6c-0.3-0.5-0.8-0.8-1.3-1.1s-1.2-0.4-2-0.4c-1.1,0-2,0.2-2.8,0.6c-0.8,0.4-1.4,0.9-1.9,1.6
		c-0.5,0.7-0.9,1.5-1.1,2.4c-0.2,0.9-0.4,1.9-0.4,3V42h-2.5V21.4H59.8z"/>
	<path d="M92.7,35.2c0.3,1,0.7,1.8,1.2,2.6c0.6,0.8,1.3,1.4,2.1,1.9c0.9,0.5,1.9,0.8,3.1,0.8c1.8,0,3.3-0.5,4.3-1.4s1.8-2.2,2.2-3.8
		h2.5c-0.5,2.3-1.5,4.2-2.9,5.4c-1.4,1.3-3.4,1.9-6.1,1.9c-1.6,0-3-0.3-4.2-0.9c-1.2-0.6-2.2-1.4-2.9-2.4s-1.3-2.2-1.7-3.5
		s-0.5-2.7-0.5-4.2c0-1.4,0.2-2.7,0.5-4c0.4-1.3,0.9-2.5,1.7-3.5c0.7-1,1.7-1.9,2.9-2.5s2.6-0.9,4.2-0.9c1.7,0,3.1,0.3,4.2,1
		c1.2,0.7,2.1,1.5,2.9,2.6c0.7,1.1,1.3,2.3,1.6,3.7s0.5,2.8,0.4,4.3H92.3C92.3,33.3,92.4,34.2,92.7,35.2z M105.1,27.5
		c-0.3-0.9-0.7-1.7-1.3-2.3c-0.6-0.7-1.2-1.2-2-1.6c-0.8-0.4-1.7-0.6-2.7-0.6s-2,0.2-2.8,0.6c-0.8,0.4-1.5,1-2,1.6
		c-0.6,0.7-1,1.5-1.3,2.4s-0.6,1.8-0.7,2.7h13.4C105.6,29.3,105.4,28.4,105.1,27.5z"/>
</g>
<g class="st0">
	<path d="M116,14.2h4.9v23.6h14.2V42h-19L116,14.2L116,14.2z"/>
	<path d="M147,42.5c-1.6,0-3-0.3-4.3-0.8s-2.3-1.3-3.2-2.2s-1.5-2.1-2-3.4c-0.5-1.3-0.7-2.7-0.7-4.3c0-1.5,0.2-3,0.7-4.3
		s1.1-2.4,2-3.4c0.9-0.9,1.9-1.7,3.2-2.2s2.7-0.8,4.3-0.8s3,0.3,4.3,0.8s2.3,1.3,3.2,2.2s1.5,2.1,2,3.4s0.7,2.7,0.7,4.3
		s-0.2,3-0.7,4.3s-1.1,2.4-2,3.4s-1.9,1.7-3.2,2.2C150,42.3,148.6,42.5,147,42.5z M147,39c1,0,1.8-0.2,2.6-0.6
		c0.7-0.4,1.3-1,1.8-1.6s0.8-1.4,1-2.3c0.2-0.8,0.3-1.7,0.3-2.6c0-0.9-0.1-1.7-0.3-2.6c-0.2-0.9-0.6-1.6-1-2.3
		c-0.5-0.7-1.1-1.2-1.8-1.6c-0.7-0.4-1.6-0.6-2.6-0.6s-1.8,0.2-2.6,0.6c-0.7,0.4-1.3,1-1.8,1.6c-0.5,0.7-0.8,1.4-1,2.3
		c-0.2,0.9-0.3,1.7-0.3,2.6c0,0.9,0.1,1.7,0.3,2.6c0.2,0.8,0.6,1.6,1,2.3s1.1,1.2,1.8,1.6S146,39,147,39z"/>
	<path d="M170.1,42.5c-1.6,0-3-0.3-4.3-0.8s-2.3-1.3-3.2-2.2s-1.5-2.1-2-3.4c-0.5-1.3-0.7-2.7-0.7-4.3c0-1.5,0.2-3,0.7-4.3
		s1.1-2.4,2-3.4c0.9-0.9,1.9-1.7,3.2-2.2s2.7-0.8,4.3-0.8s3,0.3,4.3,0.8s2.3,1.3,3.2,2.2s1.5,2.1,2,3.4s0.7,2.7,0.7,4.3
		s-0.2,3-0.7,4.3s-1.1,2.4-2,3.4s-1.9,1.7-3.2,2.2C173.1,42.3,171.7,42.5,170.1,42.5z M170.1,39c1,0,1.8-0.2,2.6-0.6
		c0.7-0.4,1.3-1,1.8-1.6c0.5-0.7,0.8-1.4,1-2.3c0.2-0.8,0.3-1.7,0.3-2.6c0-0.9-0.1-1.7-0.3-2.6c-0.2-0.9-0.6-1.6-1-2.3
		c-0.5-0.7-1.1-1.2-1.8-1.6c-0.7-0.4-1.6-0.6-2.6-0.6s-1.8,0.2-2.6,0.6c-0.7,0.4-1.3,1-1.8,1.6c-0.5,0.7-0.8,1.4-1,2.3
		c-0.2,0.9-0.3,1.7-0.3,2.6c0,0.9,0.1,1.7,0.3,2.6c0.2,0.8,0.6,1.6,1,2.3c0.5,0.7,1.1,1.2,1.8,1.6S169.1,39,170.1,39z"/>
	<path d="M184.1,21.8h4.2v2.7h0.1c0.6-1.2,1.5-2,2.6-2.5s2.3-0.8,3.6-0.8c1.6,0,3,0.3,4.2,0.8c1.2,0.6,2.2,1.3,2.9,2.3
		c0.8,1,1.4,2.1,1.8,3.4c0.4,1.3,0.6,2.7,0.6,4.2c0,1.4-0.2,2.7-0.5,3.9c-0.4,1.3-0.9,2.4-1.6,3.4c-0.7,1-1.6,1.8-2.7,2.3
		c-1.1,0.6-2.4,0.9-3.9,0.9c-0.7,0-1.3-0.1-2-0.2c-0.6-0.1-1.3-0.3-1.9-0.6c-0.6-0.3-1.2-0.6-1.7-1s-0.9-0.9-1.3-1.4h-0.1v10.1H184
		L184.1,21.8L184.1,21.8z M199.6,31.9c0-0.9-0.1-1.8-0.4-2.7c-0.2-0.9-0.6-1.6-1.1-2.3s-1.1-1.2-1.8-1.6c-0.7-0.4-1.5-0.6-2.4-0.6
		c-1.9,0-3.3,0.7-4.2,2s-1.4,3-1.4,5.2c0,1,0.1,2,0.4,2.8s0.6,1.6,1.1,2.2s1.1,1.1,1.8,1.5s1.5,0.5,2.4,0.5c1,0,1.9-0.2,2.6-0.6
		c0.7-0.4,1.3-1,1.7-1.6c0.5-0.7,0.8-1.4,1-2.3C199.5,33.7,199.6,32.8,199.6,31.9z"/>
</g>
</svg>
